<svg id="Layer_1" data-name="Layer 1" xmlns="http://www.w3.org/2000/svg" viewBox="0 0 409.6 409.6"><path d="M1290.76,1145.64v.72a15.84,15.84,0,0,1-15.84,15.84h-63.36v62.64a15.84,15.84,0,0,1-31.68,0V1162.2H1115.8a15.84,15.84,0,0,1-15.84-15.84v-.43a15.84,15.84,0,0,1,15.77-15.84l64.15-.29v-63.36a15.84,15.84,0,0,1,31.68,0v63.36h63.36A15.84,15.84,0,0,1,1290.76,1145.64Z" transform="translate(-991 -943.24)"/><path d="M1195.8,943.24c-113.11,0-204.8,91.69-204.8,204.8s91.69,204.8,204.8,204.8,204.8-91.7,204.8-204.8S1308.91,943.24,1195.8,943.24Zm-.44,379.52a175.16,175.16,0,1,1,175.16-175.16A175.16,175.16,0,0,1,1195.36,1322.76Z" transform="translate(-991 -943.24)"/><path d="M1195.36,972.44a175.16,175.16,0,1,0,175.16,175.16A175.16,175.16,0,0,0,1195.36,972.44Zm95.4,173.92a15.84,15.84,0,0,1-15.84,15.84h-63.36v62.64a15.84,15.84,0,0,1-31.68,0V1162.2H1115.8a15.84,15.84,0,0,1-15.84-15.84v-.43a15.84,15.84,0,0,1,15.77-15.84l64.15-.29v-63.36a15.84,15.84,0,0,1,31.68,0v63.36h63.36a15.84,15.84,0,0,1,15.84,15.84Z" transform="translate(-991 -943.24)" style="fill:none"/></svg>