<svg id="svg" version="1.1" xmlns="http://www.w3.org/2000/svg" xmlns:xlink="http://www.w3.org/1999/xlink" width="400" height="400" viewBox="0, 0, 400,400"><g id="svgg"><path id="path0" d="M72.600 86.800 C 72.464 87.020,72.003 87.200,71.576 87.200 C 71.149 87.200,70.800 87.380,70.800 87.600 C 70.800 87.820,70.517 88.000,70.171 88.000 C 69.826 88.000,69.286 88.257,68.971 88.571 C 68.657 88.886,68.400 89.426,68.400 89.771 C 68.400 90.117,68.220 90.400,68.000 90.400 C 67.780 90.400,67.600 90.760,67.600 91.200 C 67.600 91.640,67.420 92.000,67.200 92.000 C 66.980 92.000,66.800 92.990,66.800 94.200 C 66.800 95.410,66.980 96.400,67.200 96.400 C 67.420 96.400,67.600 96.816,67.600 97.325 C 67.600 97.833,67.960 98.636,68.400 99.108 C 68.840 99.580,69.200 100.244,69.200 100.583 C 69.200 100.922,69.380 101.200,69.600 101.200 C 69.820 101.200,70.000 101.478,70.000 101.817 C 70.000 102.156,70.360 102.820,70.800 103.292 C 71.240 103.764,71.600 104.387,71.600 104.675 C 71.600 104.964,71.780 105.200,72.000 105.200 C 72.220 105.200,72.400 105.560,72.400 106.000 C 72.400 106.440,72.580 106.800,72.800 106.800 C 73.020 106.800,73.200 107.004,73.200 107.253 C 73.200 107.502,73.531 107.997,73.936 108.353 C 74.341 108.709,74.791 109.482,74.937 110.072 C 75.082 110.662,75.426 111.386,75.701 111.682 C 75.975 111.977,76.259 112.485,76.330 112.810 C 76.402 113.134,76.628 113.460,76.832 113.534 C 77.037 113.608,77.103 113.833,76.979 114.034 C 76.855 114.235,76.943 114.400,77.176 114.400 C 77.409 114.400,77.600 114.745,77.600 115.167 C 77.600 115.588,77.735 115.993,77.900 116.067 C 78.276 116.234,79.575 118.364,79.871 119.300 C 79.993 119.685,80.252 120.000,80.447 120.000 C 80.641 120.000,80.800 120.379,80.800 120.843 C 80.800 121.397,80.990 121.613,81.355 121.473 C 81.744 121.323,81.849 121.490,81.708 122.030 C 81.597 122.453,81.708 122.800,81.953 122.800 C 82.199 122.800,82.400 123.070,82.400 123.400 C 82.400 123.730,82.580 124.000,82.800 124.000 C 83.020 124.000,83.200 124.270,83.200 124.600 C 83.200 124.930,83.380 125.200,83.600 125.200 C 83.820 125.200,84.000 125.560,84.000 126.000 C 84.000 126.440,84.180 126.800,84.400 126.800 C 84.620 126.800,84.800 127.117,84.800 127.505 C 84.800 127.893,85.238 128.539,85.774 128.941 C 86.318 129.350,86.652 129.921,86.531 130.236 C 86.412 130.546,86.514 130.800,86.757 130.800 C 87.001 130.800,87.200 131.160,87.200 131.600 C 87.200 132.040,87.380 132.400,87.600 132.400 C 87.820 132.400,88.000 132.636,88.000 132.925 C 88.000 133.213,88.360 133.836,88.800 134.308 C 89.240 134.780,89.600 135.444,89.600 135.783 C 89.600 136.122,89.780 136.400,90.000 136.400 C 90.220 136.400,90.400 136.760,90.400 137.200 C 90.400 137.640,90.580 138.000,90.800 138.000 C 91.020 138.000,91.200 138.270,91.200 138.600 C 91.200 138.930,91.380 139.200,91.600 139.200 C 91.820 139.200,92.000 139.470,92.000 139.800 C 92.000 140.130,92.191 140.400,92.424 140.400 C 92.657 140.400,92.735 140.581,92.598 140.803 C 92.461 141.024,92.631 141.314,92.975 141.446 C 93.319 141.578,93.600 142.013,93.600 142.414 C 93.600 142.815,93.870 143.413,94.200 143.743 C 94.530 144.073,94.800 144.626,94.800 144.971 C 94.800 145.317,94.980 145.600,95.200 145.600 C 95.420 145.600,95.600 145.960,95.600 146.400 C 95.600 146.840,95.780 147.200,96.000 147.200 C 96.220 147.200,96.400 147.436,96.400 147.725 C 96.400 148.013,96.760 148.636,97.200 149.108 C 97.640 149.580,98.000 150.244,98.000 150.583 C 98.000 150.922,98.180 151.200,98.400 151.200 C 98.620 151.200,98.800 151.560,98.800 152.000 C 98.800 152.440,98.950 152.800,99.132 152.800 C 99.315 152.800,99.700 153.239,99.986 153.775 C 100.577 154.878,100.269 155.352,98.300 156.368 C 97.695 156.680,97.200 157.085,97.200 157.268 C 97.200 157.450,96.840 157.600,96.400 157.600 C 95.960 157.600,95.600 157.780,95.600 158.000 C 95.600 158.220,95.330 158.400,95.000 158.400 C 94.670 158.400,94.400 158.580,94.400 158.800 C 94.400 159.020,94.175 159.155,93.900 159.100 C 93.625 159.045,93.439 159.207,93.486 159.459 C 93.537 159.731,93.252 159.834,92.786 159.712 C 92.351 159.599,92.000 159.706,92.000 159.953 C 92.000 160.199,91.764 160.400,91.475 160.400 C 91.187 160.400,90.564 160.760,90.092 161.200 C 89.620 161.640,88.996 162.000,88.705 162.000 C 88.414 162.000,87.917 162.360,87.600 162.800 C 87.283 163.240,86.684 163.600,86.269 163.600 C 85.774 163.600,85.591 163.800,85.737 164.180 C 85.885 164.567,85.767 164.685,85.380 164.537 C 85.061 164.414,84.800 164.514,84.800 164.757 C 84.800 165.001,84.480 165.200,84.088 165.200 C 83.697 165.200,83.117 165.560,82.800 166.000 C 82.483 166.440,82.020 166.800,81.771 166.800 C 81.522 166.800,80.794 167.295,80.152 167.900 C 79.511 168.505,78.500 169.252,77.907 169.560 C 77.313 169.868,76.922 170.273,77.037 170.460 C 77.153 170.647,76.956 170.800,76.600 170.800 C 76.244 170.800,76.064 170.980,76.200 171.200 C 76.336 171.420,76.167 171.600,75.824 171.600 C 75.481 171.600,74.459 172.320,73.552 173.200 C 72.645 174.080,71.738 174.800,71.535 174.800 C 71.157 174.800,70.619 175.196,69.081 176.609 C 68.596 177.053,67.570 177.862,66.800 178.405 C 64.869 179.768,58.807 185.874,59.097 186.164 C 59.227 186.294,58.988 186.406,58.567 186.414 C 58.145 186.422,57.080 187.255,56.200 188.266 C 55.320 189.276,54.195 190.538,53.700 191.070 C 53.205 191.601,52.800 192.219,52.800 192.442 C 52.800 192.665,52.620 192.736,52.400 192.600 C 52.180 192.464,52.000 192.663,52.000 193.043 C 52.000 193.423,51.893 193.626,51.762 193.496 C 51.469 193.202,47.746 196.893,46.411 198.800 C 45.872 199.570,44.963 200.650,44.391 201.200 C 43.818 201.750,43.001 202.829,42.575 203.597 C 42.149 204.366,41.305 205.473,40.700 206.058 C 40.095 206.642,39.600 207.330,39.600 207.586 C 39.600 207.842,39.060 208.506,38.400 209.061 C 37.740 209.617,37.200 210.237,37.200 210.439 C 37.200 210.642,36.660 211.372,36.000 212.063 C 35.340 212.754,34.800 213.522,34.800 213.771 C 34.800 214.020,34.440 214.483,34.000 214.800 C 33.560 215.117,33.200 215.657,33.200 216.000 C 33.200 216.343,32.840 216.883,32.400 217.200 C 31.960 217.517,31.600 218.057,31.600 218.400 C 31.600 218.743,31.240 219.283,30.800 219.600 C 30.360 219.917,30.000 220.414,30.000 220.705 C 30.000 220.996,29.640 221.620,29.200 222.092 C 28.760 222.564,28.400 223.187,28.400 223.475 C 28.400 223.764,28.220 224.000,28.000 224.000 C 27.780 224.000,27.600 224.246,27.600 224.546 C 27.600 224.846,27.246 225.542,26.813 226.092 C 26.380 226.643,26.140 227.207,26.280 227.346 C 26.419 227.486,26.359 227.600,26.145 227.600 C 25.932 227.600,25.317 228.497,24.779 229.594 C 24.240 230.690,23.665 231.590,23.500 231.594 C 23.335 231.597,23.200 231.960,23.200 232.400 C 23.200 232.840,23.020 233.200,22.800 233.200 C 22.580 233.200,22.400 233.560,22.400 234.000 C 22.400 234.440,22.220 234.800,22.000 234.800 C 21.780 234.800,21.600 235.160,21.600 235.600 C 21.600 236.040,21.420 236.400,21.200 236.400 C 20.980 236.400,20.800 236.760,20.800 237.200 C 20.800 237.640,20.620 238.000,20.400 238.000 C 20.180 238.000,20.000 238.360,20.000 238.800 C 20.000 239.240,19.820 239.600,19.600 239.600 C 19.380 239.600,19.200 239.960,19.200 240.400 C 19.200 240.840,19.054 241.200,18.875 241.200 C 18.696 241.200,18.302 241.830,18.000 242.600 C 17.698 243.370,17.304 244.000,17.125 244.000 C 16.946 244.000,16.800 244.360,16.800 244.800 C 16.800 245.240,16.620 245.600,16.400 245.600 C 16.180 245.600,16.000 245.949,16.000 246.376 C 16.000 246.803,15.820 247.264,15.600 247.400 C 15.380 247.536,15.200 248.087,15.200 248.624 C 15.200 249.161,15.020 249.600,14.800 249.600 C 14.580 249.600,14.400 249.960,14.400 250.400 C 14.400 250.840,14.253 251.200,14.072 251.200 C 13.892 251.200,13.500 252.100,13.200 253.200 C 12.900 254.300,12.547 255.200,12.415 255.200 C 12.283 255.200,11.925 256.055,11.620 257.100 C 11.092 258.911,10.897 259.405,10.017 261.168 C 9.806 261.590,9.703 262.296,9.788 262.736 C 9.877 263.198,9.683 263.636,9.329 263.772 C 8.900 263.936,8.791 264.308,8.965 265.004 C 9.109 265.577,9.042 266.000,8.808 266.000 C 8.583 266.000,8.400 266.540,8.400 267.200 C 8.400 267.860,8.220 268.400,8.000 268.400 C 7.780 268.400,7.600 268.940,7.600 269.600 C 7.600 270.260,7.420 270.800,7.200 270.800 C 6.980 270.800,6.800 271.419,6.800 272.176 C 6.800 272.933,6.620 273.664,6.400 273.800 C 6.180 273.936,6.000 274.577,6.000 275.224 C 6.000 275.871,5.820 276.400,5.600 276.400 C 5.380 276.400,5.200 277.030,5.200 277.800 C 5.200 278.570,5.020 279.200,4.800 279.200 C 4.580 279.200,4.400 279.920,4.400 280.800 C 4.400 281.680,4.220 282.400,4.000 282.400 C 3.780 282.400,3.600 283.199,3.600 284.176 C 3.600 285.153,3.420 286.064,3.200 286.200 C 2.980 286.336,2.800 287.146,2.800 288.000 C 2.800 288.854,2.620 289.664,2.400 289.800 C 2.180 289.936,2.000 290.926,2.000 292.000 C 2.000 293.074,1.820 294.064,1.600 294.200 C 1.380 294.336,1.200 295.412,1.200 296.590 C 1.200 297.769,1.025 298.793,0.811 298.867 C 0.591 298.942,0.302 302.182,0.148 306.300 L -0.125 313.600 200.000 313.600 L 400.125 313.600 399.852 306.300 C 399.698 302.182,399.409 298.942,399.189 298.867 C 398.975 298.793,398.800 297.769,398.800 296.590 C 398.800 295.412,398.620 294.336,398.400 294.200 C 398.180 294.064,398.000 293.164,398.000 292.200 C 398.000 291.236,397.820 290.336,397.600 290.200 C 397.380 290.064,397.200 289.164,397.200 288.200 C 397.200 287.236,397.020 286.336,396.800 286.200 C 396.580 286.064,396.400 285.153,396.400 284.176 C 396.400 283.199,396.220 282.400,396.000 282.400 C 395.780 282.400,395.600 281.680,395.600 280.800 C 395.600 279.920,395.420 279.200,395.200 279.200 C 394.980 279.200,394.800 278.570,394.800 277.800 C 394.800 277.030,394.620 276.400,394.400 276.400 C 394.180 276.400,394.000 275.871,394.000 275.224 C 394.000 274.577,393.820 273.936,393.600 273.800 C 393.380 273.664,393.200 272.933,393.200 272.176 C 393.200 271.419,393.020 270.800,392.800 270.800 C 392.580 270.800,392.400 270.260,392.400 269.600 C 392.400 268.940,392.241 268.400,392.046 268.400 C 391.851 268.400,391.569 267.413,391.418 266.206 C 391.267 265.000,390.977 263.909,390.772 263.783 C 390.567 263.656,390.400 263.201,390.400 262.771 C 390.400 262.341,390.220 261.632,390.000 261.195 C 389.116 259.438,388.912 258.924,388.380 257.100 C 388.075 256.055,387.707 255.200,387.563 255.200 C 387.418 255.200,387.190 254.648,387.055 253.973 C 386.920 253.299,386.653 252.843,386.462 252.961 C 386.272 253.079,386.201 252.731,386.304 252.188 C 386.414 251.614,386.306 251.200,386.047 251.200 C 385.801 251.200,385.600 250.840,385.600 250.400 C 385.600 249.960,385.420 249.600,385.200 249.600 C 384.980 249.600,384.800 249.161,384.800 248.624 C 384.800 248.087,384.620 247.536,384.400 247.400 C 384.180 247.264,384.000 246.803,384.000 246.376 C 384.000 245.949,383.820 245.600,383.600 245.600 C 383.380 245.600,383.200 245.240,383.200 244.800 C 383.200 244.360,383.054 244.000,382.875 244.000 C 382.696 244.000,382.302 243.370,382.000 242.600 C 381.698 241.830,381.304 241.200,381.125 241.200 C 380.946 241.200,380.800 240.840,380.800 240.400 C 380.800 239.960,380.620 239.600,380.400 239.600 C 380.180 239.600,380.000 239.240,380.000 238.800 C 380.000 238.360,379.820 238.000,379.600 238.000 C 379.380 238.000,379.200 237.640,379.200 237.200 C 379.200 236.760,379.020 236.400,378.800 236.400 C 378.580 236.400,378.400 236.040,378.400 235.600 C 378.400 235.160,378.220 234.800,378.000 234.800 C 377.780 234.800,377.600 234.440,377.600 234.000 C 377.600 233.560,377.420 233.200,377.200 233.200 C 376.980 233.200,376.800 232.840,376.800 232.400 C 376.800 231.960,376.665 231.598,376.500 231.595 C 376.335 231.593,375.847 230.828,375.416 229.895 C 374.985 228.963,374.130 227.448,373.516 226.528 C 372.902 225.608,372.400 224.663,372.400 224.428 C 372.400 224.193,372.220 224.000,372.000 224.000 C 371.780 224.000,371.600 223.764,371.600 223.475 C 371.600 223.187,371.240 222.564,370.800 222.092 C 370.360 221.620,370.000 221.033,370.000 220.788 C 370.000 220.227,368.992 219.200,368.441 219.200 C 368.212 219.200,368.131 218.925,368.260 218.588 C 368.396 218.235,368.137 217.665,367.647 217.241 C 367.181 216.837,366.800 216.252,366.800 215.941 C 366.800 215.631,366.440 215.117,366.000 214.800 C 365.560 214.483,365.200 214.020,365.200 213.771 C 365.200 213.522,364.660 212.754,364.000 212.063 C 363.340 211.372,362.800 210.642,362.800 210.439 C 362.800 210.237,362.260 209.617,361.600 209.061 C 360.940 208.506,360.400 207.836,360.400 207.573 C 360.400 207.309,360.083 206.803,359.697 206.447 C 359.310 206.091,358.455 204.990,357.797 204.000 C 357.139 203.010,356.144 201.750,355.585 201.200 C 355.026 200.650,354.128 199.570,353.589 198.800 C 352.250 196.888,347.730 192.404,347.437 192.696 C 347.307 192.827,347.200 192.722,347.200 192.463 C 347.200 191.891,345.649 190.071,343.078 187.627 C 342.022 186.622,339.682 184.358,337.878 182.597 C 336.075 180.835,333.970 178.948,333.200 178.404 C 332.430 177.860,331.440 177.089,331.000 176.690 C 329.313 175.161,327.786 174.001,327.460 174.000 C 327.274 174.000,326.617 173.460,326.000 172.800 C 325.383 172.140,324.770 171.600,324.636 171.600 C 324.502 171.600,323.828 171.060,323.137 170.400 C 322.446 169.740,321.726 169.200,321.537 169.200 C 321.348 169.200,320.628 168.660,319.937 168.000 C 319.246 167.340,318.478 166.800,318.229 166.800 C 317.980 166.800,317.517 166.440,317.200 166.000 C 316.883 165.560,316.343 165.200,316.000 165.200 C 315.657 165.200,315.117 164.840,314.800 164.400 C 314.483 163.960,313.943 163.600,313.600 163.600 C 313.257 163.600,312.717 163.240,312.400 162.800 C 312.083 162.360,311.586 162.000,311.295 162.000 C 311.004 162.000,310.390 161.649,309.929 161.220 C 309.469 160.791,308.494 160.156,307.763 159.809 C 307.032 159.462,306.326 159.003,306.193 158.789 C 306.061 158.575,305.603 158.400,305.176 158.400 C 304.749 158.400,304.400 158.220,304.400 158.000 C 304.400 157.780,304.080 157.600,303.688 157.600 C 303.297 157.600,302.717 157.240,302.400 156.800 C 302.083 156.360,301.580 156.000,301.283 156.000 C 300.638 156.000,299.600 155.031,299.600 154.429 C 299.600 154.193,299.780 154.000,300.000 154.000 C 300.220 154.000,300.400 153.730,300.400 153.400 C 300.400 153.070,300.580 152.800,300.800 152.800 C 301.020 152.800,301.200 152.440,301.200 152.000 C 301.200 151.560,301.380 151.200,301.600 151.200 C 301.820 151.200,302.000 150.922,302.000 150.583 C 302.000 150.244,302.360 149.580,302.800 149.108 C 303.240 148.636,303.600 148.013,303.600 147.725 C 303.600 147.436,303.780 147.200,304.000 147.200 C 304.220 147.200,304.400 146.840,304.400 146.400 C 304.400 145.960,304.535 145.597,304.700 145.594 C 304.865 145.590,305.440 144.690,305.979 143.594 C 306.517 142.497,307.062 141.600,307.189 141.600 C 307.316 141.600,307.776 140.792,308.210 139.804 C 308.645 138.816,309.135 138.006,309.300 138.004 C 309.465 138.002,309.600 137.640,309.600 137.200 C 309.600 136.760,309.780 136.400,310.000 136.400 C 310.220 136.400,310.400 136.122,310.400 135.783 C 310.400 135.444,310.760 134.780,311.200 134.308 C 311.640 133.836,312.000 133.213,312.000 132.925 C 312.000 132.636,312.180 132.400,312.400 132.400 C 312.620 132.400,312.800 132.040,312.800 131.600 C 312.800 131.160,312.980 130.800,313.200 130.800 C 313.420 130.800,313.600 130.480,313.600 130.088 C 313.600 129.697,313.960 129.117,314.400 128.800 C 314.840 128.483,315.200 127.903,315.200 127.512 C 315.200 127.120,315.380 126.800,315.600 126.800 C 315.820 126.800,316.000 126.440,316.000 126.000 C 316.000 125.560,316.180 125.200,316.400 125.200 C 316.620 125.200,316.800 124.930,316.800 124.600 C 316.800 124.270,316.980 124.000,317.200 124.000 C 317.420 124.000,317.600 123.730,317.600 123.400 C 317.600 123.070,317.780 122.800,318.000 122.800 C 318.220 122.800,318.400 122.530,318.400 122.200 C 318.400 121.870,318.580 121.600,318.800 121.600 C 319.020 121.600,319.200 121.240,319.200 120.800 C 319.200 120.360,319.401 120.000,319.647 120.000 C 319.894 120.000,320.001 119.649,319.888 119.214 C 319.775 118.781,319.848 118.466,320.051 118.514 C 320.254 118.561,320.731 118.060,321.110 117.400 C 321.490 116.740,321.935 116.140,322.100 116.067 C 322.265 115.993,322.400 115.588,322.400 115.167 C 322.400 114.745,322.547 114.400,322.726 114.400 C 323.022 114.400,324.511 111.768,324.574 111.133 C 324.588 110.987,324.735 110.732,324.900 110.567 C 325.065 110.402,325.200 109.937,325.200 109.533 C 325.200 109.130,325.391 108.800,325.624 108.800 C 325.857 108.800,325.936 108.620,325.800 108.400 C 325.664 108.180,325.833 108.000,326.176 108.000 C 326.519 108.000,326.800 107.730,326.800 107.400 C 326.800 107.070,326.980 106.800,327.200 106.800 C 327.420 106.800,327.600 106.440,327.600 106.000 C 327.600 105.560,327.780 105.200,328.000 105.200 C 328.220 105.200,328.400 104.964,328.400 104.675 C 328.400 104.387,328.760 103.764,329.200 103.292 C 329.640 102.820,330.000 102.156,330.000 101.817 C 330.000 101.478,330.180 101.200,330.400 101.200 C 330.620 101.200,330.800 100.922,330.800 100.583 C 330.800 100.244,331.160 99.580,331.600 99.108 C 332.040 98.636,332.400 97.833,332.400 97.325 C 332.400 96.816,332.580 96.400,332.800 96.400 C 333.020 96.400,333.200 95.410,333.200 94.200 C 333.200 92.990,333.020 92.000,332.800 92.000 C 332.580 92.000,332.400 91.640,332.400 91.200 C 332.400 90.760,332.220 90.400,332.000 90.400 C 331.780 90.400,331.600 90.117,331.600 89.771 C 331.600 88.963,330.637 88.000,329.829 88.000 C 329.483 88.000,329.200 87.820,329.200 87.600 C 329.200 87.380,328.851 87.200,328.424 87.200 C 327.997 87.200,327.536 87.020,327.400 86.800 C 327.264 86.580,326.263 86.400,325.176 86.400 C 324.089 86.400,323.200 86.580,323.200 86.800 C 323.200 87.020,322.840 87.200,322.400 87.200 C 321.960 87.200,321.600 87.380,321.600 87.600 C 321.600 87.820,321.306 88.000,320.947 88.000 C 320.216 88.000,318.401 89.925,318.400 90.700 C 318.400 90.975,318.264 91.200,318.098 91.200 C 317.931 91.200,317.536 91.785,317.220 92.500 C 316.903 93.215,316.320 94.149,315.922 94.575 C 315.525 95.002,315.200 95.587,315.200 95.875 C 315.200 96.164,315.020 96.400,314.800 96.400 C 314.580 96.400,314.400 96.745,314.400 97.167 C 314.400 97.588,314.265 97.993,314.100 98.067 C 313.724 98.234,312.425 100.364,312.129 101.300 C 312.007 101.685,311.748 102.000,311.553 102.000 C 311.359 102.000,311.200 102.360,311.200 102.800 C 311.200 103.240,311.032 103.600,310.827 103.600 C 310.499 103.600,309.764 105.214,309.956 105.514 C 309.996 105.577,309.750 105.907,309.411 106.247 C 309.071 106.586,308.895 107.030,309.020 107.232 C 309.145 107.435,309.057 107.600,308.824 107.600 C 308.591 107.600,308.400 107.870,308.400 108.200 C 308.400 108.530,308.220 108.800,308.000 108.800 C 307.780 108.800,307.600 109.070,307.600 109.400 C 307.600 109.730,307.420 110.000,307.200 110.000 C 306.980 110.000,306.800 110.270,306.800 110.600 C 306.800 110.930,306.620 111.200,306.400 111.200 C 306.180 111.200,306.000 111.560,306.000 112.000 C 306.000 112.440,305.820 112.800,305.600 112.800 C 305.380 112.800,305.200 113.036,305.200 113.325 C 305.200 113.613,304.840 114.236,304.400 114.708 C 303.960 115.180,303.600 115.844,303.600 116.183 C 303.600 116.522,303.420 116.800,303.200 116.800 C 302.980 116.800,302.800 117.160,302.800 117.600 C 302.800 118.040,302.642 118.400,302.449 118.400 C 302.255 118.400,301.873 118.940,301.600 119.600 C 301.327 120.260,300.945 120.800,300.751 120.800 C 300.558 120.800,300.400 121.160,300.400 121.600 C 300.400 122.040,300.220 122.400,300.000 122.400 C 299.780 122.400,299.600 122.678,299.600 123.017 C 299.600 123.356,299.240 124.020,298.800 124.492 C 298.360 124.964,298.000 125.587,298.000 125.875 C 298.000 126.164,297.820 126.400,297.600 126.400 C 297.380 126.400,297.200 126.670,297.200 127.000 C 297.200 127.330,297.020 127.600,296.800 127.600 C 296.580 127.600,296.400 127.960,296.400 128.400 C 296.400 128.840,296.255 129.200,296.079 129.200 C 295.902 129.200,295.317 130.097,294.779 131.194 C 294.240 132.290,293.665 133.190,293.500 133.194 C 293.335 133.197,293.200 133.483,293.200 133.829 C 293.200 134.174,292.930 134.727,292.600 135.057 C 292.270 135.387,292.000 136.004,292.000 136.429 C 292.000 136.853,291.820 137.200,291.600 137.200 C 291.380 137.200,291.200 137.478,291.200 137.817 C 291.200 138.156,290.840 138.820,290.400 139.292 C 289.960 139.764,289.600 140.387,289.600 140.675 C 289.600 140.964,289.454 141.200,289.275 141.200 C 289.096 141.200,288.702 141.830,288.400 142.600 C 288.098 143.370,287.704 144.000,287.525 144.000 C 287.346 144.000,287.200 144.270,287.200 144.600 C 287.200 144.930,287.020 145.200,286.800 145.200 C 286.580 145.200,286.400 145.470,286.400 145.800 C 286.400 146.130,286.220 146.400,286.000 146.400 C 285.780 146.400,285.600 146.760,285.600 147.200 C 285.600 147.640,285.420 148.000,285.200 148.000 C 284.980 148.000,284.800 147.853,284.800 147.672 C 284.800 147.492,283.900 147.100,282.800 146.800 C 281.700 146.500,280.800 146.108,280.800 145.928 C 280.800 145.747,280.451 145.600,280.024 145.600 C 279.597 145.600,279.136 145.420,279.000 145.200 C 278.864 144.980,278.313 144.800,277.776 144.800 C 277.239 144.800,276.800 144.620,276.800 144.400 C 276.800 144.180,276.451 144.000,276.024 144.000 C 275.597 144.000,275.146 143.836,275.022 143.636 C 274.898 143.435,274.486 143.317,274.107 143.373 C 273.727 143.428,273.173 143.231,272.876 142.933 C 272.579 142.636,272.177 142.490,271.984 142.610 C 271.791 142.729,271.265 142.641,270.816 142.414 C 270.367 142.186,269.642 141.820,269.205 141.600 C 268.768 141.380,268.048 141.200,267.605 141.200 C 267.162 141.200,266.800 141.020,266.800 140.800 C 266.800 140.580,266.260 140.400,265.600 140.400 C 264.940 140.400,264.400 140.220,264.400 140.000 C 264.400 139.780,263.680 139.600,262.800 139.600 C 261.920 139.600,261.200 139.420,261.200 139.200 C 261.200 138.980,260.660 138.800,260.000 138.800 C 259.340 138.800,258.800 138.620,258.800 138.400 C 258.800 138.180,258.271 138.000,257.624 138.000 C 256.977 138.000,256.336 137.820,256.200 137.600 C 256.064 137.380,255.434 137.200,254.800 137.200 C 254.166 137.200,253.536 137.020,253.400 136.800 C 253.264 136.580,252.533 136.400,251.776 136.400 C 251.019 136.400,250.400 136.220,250.400 136.000 C 250.400 135.780,249.601 135.600,248.624 135.600 C 247.647 135.600,246.736 135.420,246.600 135.200 C 246.464 134.980,245.643 134.800,244.776 134.800 C 243.909 134.800,243.200 134.620,243.200 134.400 C 243.200 134.180,242.300 134.000,241.200 134.000 C 240.100 134.000,239.200 133.820,239.200 133.600 C 239.200 133.380,238.210 133.200,237.000 133.200 C 235.790 133.200,234.800 133.020,234.800 132.800 C 234.800 132.571,233.600 132.400,232.000 132.400 C 230.400 132.400,229.200 132.229,229.200 132.000 C 229.200 131.767,227.867 131.600,226.000 131.600 C 224.240 131.600,222.800 131.431,222.800 131.224 C 222.800 130.443,187.414 129.626,186.651 130.389 C 186.418 130.622,184.280 130.800,181.720 130.800 C 178.973 130.800,177.200 130.957,177.200 131.200 C 177.200 131.433,175.878 131.600,174.033 131.600 C 172.064 131.600,170.811 131.768,170.718 132.045 C 170.627 132.318,169.534 132.475,167.885 132.450 C 166.356 132.427,165.200 132.580,165.200 132.805 C 165.200 133.022,164.210 133.200,163.000 133.200 C 161.790 133.200,160.800 133.380,160.800 133.600 C 160.800 133.820,159.900 134.000,158.800 134.000 C 157.700 134.000,156.800 134.180,156.800 134.400 C 156.800 134.620,156.091 134.800,155.224 134.800 C 154.357 134.800,153.536 134.980,153.400 135.200 C 153.264 135.420,152.454 135.600,151.600 135.600 C 150.746 135.600,149.936 135.780,149.800 136.000 C 149.664 136.220,148.944 136.400,148.200 136.400 C 147.456 136.400,146.736 136.580,146.600 136.800 C 146.464 137.020,145.834 137.200,145.200 137.200 C 144.566 137.200,143.936 137.380,143.800 137.600 C 143.664 137.820,143.023 138.000,142.376 138.000 C 141.729 138.000,141.200 138.180,141.200 138.400 C 141.200 138.620,140.660 138.800,140.000 138.800 C 139.340 138.800,138.800 138.980,138.800 139.200 C 138.800 139.420,138.181 139.600,137.424 139.600 C 136.667 139.600,135.936 139.780,135.800 140.000 C 135.664 140.220,135.023 140.400,134.376 140.400 C 133.729 140.400,133.200 140.580,133.200 140.800 C 133.200 141.020,132.838 141.200,132.395 141.200 C 131.952 141.200,131.277 141.367,130.895 141.571 C 129.720 142.198,128.637 142.550,127.800 142.575 C 127.360 142.589,127.038 142.803,127.084 143.051 C 127.131 143.309,126.319 143.614,125.184 143.764 C 124.093 143.909,123.200 144.201,123.200 144.414 C 123.200 144.626,122.761 144.800,122.224 144.800 C 121.687 144.800,121.136 144.980,121.000 145.200 C 120.864 145.420,120.403 145.600,119.976 145.600 C 119.549 145.600,119.200 145.780,119.200 146.000 C 119.200 146.220,118.921 146.400,118.581 146.400 C 118.240 146.400,117.216 146.760,116.306 147.200 C 115.395 147.640,114.594 148.000,114.525 148.000 C 114.456 148.000,114.400 147.640,114.400 147.200 C 114.400 146.760,114.220 146.400,114.000 146.400 C 113.780 146.400,113.600 146.130,113.600 145.800 C 113.600 145.470,113.420 145.200,113.200 145.200 C 112.980 145.200,112.800 144.930,112.800 144.600 C 112.800 144.270,112.654 144.000,112.475 144.000 C 112.296 144.000,111.902 143.370,111.600 142.600 C 111.298 141.830,110.904 141.200,110.725 141.200 C 110.546 141.200,110.400 140.880,110.400 140.488 C 110.400 140.097,110.040 139.517,109.600 139.200 C 109.160 138.883,108.800 138.399,108.800 138.125 C 108.800 137.381,107.501 134.800,107.126 134.800 C 106.947 134.800,106.800 134.440,106.800 134.000 C 106.800 133.560,106.665 133.197,106.500 133.194 C 106.335 133.190,105.760 132.290,105.221 131.194 C 104.683 130.097,104.098 129.200,103.921 129.200 C 103.745 129.200,103.600 128.840,103.600 128.400 C 103.600 127.960,103.420 127.600,103.200 127.600 C 102.980 127.600,102.800 127.330,102.800 127.000 C 102.800 126.670,102.620 126.400,102.400 126.400 C 102.180 126.400,102.000 126.164,102.000 125.875 C 102.000 125.587,101.640 124.964,101.200 124.492 C 100.760 124.020,100.400 123.356,100.400 123.017 C 100.400 122.678,100.220 122.400,100.000 122.400 C 99.780 122.400,99.600 122.040,99.600 121.600 C 99.600 121.160,99.442 120.800,99.249 120.800 C 99.055 120.800,98.673 120.260,98.400 119.600 C 98.127 118.940,97.745 118.400,97.551 118.400 C 97.358 118.400,97.200 118.040,97.200 117.600 C 97.200 117.160,97.020 116.800,96.800 116.800 C 96.580 116.800,96.400 116.522,96.400 116.183 C 96.400 115.844,96.040 115.180,95.600 114.708 C 95.160 114.236,94.800 113.613,94.800 113.325 C 94.800 113.036,94.620 112.800,94.400 112.800 C 94.180 112.800,94.000 112.440,94.000 112.000 C 94.000 111.560,93.820 111.200,93.600 111.200 C 93.380 111.200,93.200 110.930,93.200 110.600 C 93.200 110.270,93.020 110.000,92.800 110.000 C 92.580 110.000,92.400 109.730,92.400 109.400 C 92.400 109.070,92.220 108.800,92.000 108.800 C 91.780 108.800,91.600 108.593,91.600 108.340 C 91.600 107.647,89.480 103.600,89.116 103.600 C 88.942 103.600,88.800 103.255,88.800 102.833 C 88.800 102.412,88.665 102.007,88.500 101.933 C 88.124 101.766,86.825 99.636,86.529 98.700 C 86.407 98.315,86.148 98.000,85.953 98.000 C 85.759 98.000,85.600 97.640,85.600 97.200 C 85.600 96.760,85.420 96.400,85.200 96.400 C 84.980 96.400,84.800 96.164,84.800 95.875 C 84.800 95.587,84.475 95.002,84.078 94.575 C 83.680 94.149,83.097 93.215,82.780 92.500 C 82.464 91.785,82.069 91.200,81.902 91.200 C 81.736 91.200,81.600 90.975,81.600 90.700 C 81.599 89.816,79.735 88.000,78.830 88.000 C 78.347 88.000,78.064 87.820,78.200 87.600 C 78.336 87.380,78.077 87.200,77.624 87.200 C 77.171 87.200,76.800 87.020,76.800 86.800 C 76.800 86.580,75.911 86.400,74.824 86.400 C 73.737 86.400,72.736 86.580,72.600 86.800 M112.814 224.253 C 114.566 224.832,116.000 225.462,116.000 225.653 C 116.000 225.844,116.284 226.000,116.631 226.000 C 116.979 226.000,117.947 226.712,118.783 227.582 C 119.619 228.452,120.415 229.052,120.551 228.915 C 120.688 228.779,120.800 229.107,120.800 229.645 C 120.800 230.183,121.160 230.883,121.600 231.200 C 122.040 231.517,122.400 232.086,122.400 232.465 C 122.400 232.843,122.580 233.264,122.800 233.400 C 123.020 233.536,123.200 234.267,123.200 235.024 C 123.200 235.781,123.380 236.400,123.600 236.400 C 123.829 236.400,124.000 237.600,124.000 239.200 C 124.000 240.800,123.829 242.000,123.600 242.000 C 123.380 242.000,123.200 242.540,123.200 243.200 C 123.200 243.860,123.020 244.400,122.800 244.400 C 122.580 244.400,122.400 244.810,122.400 245.312 C 122.400 245.813,122.040 246.483,121.600 246.800 C 121.160 247.117,120.800 247.625,120.800 247.928 C 120.800 248.620,117.261 252.000,116.536 252.000 C 116.241 252.000,115.999 252.135,115.997 252.300 C 115.993 252.659,114.056 253.600,113.320 253.600 C 113.034 253.600,112.800 253.780,112.800 254.000 C 112.800 254.220,112.170 254.400,111.400 254.400 C 110.630 254.400,110.000 254.580,110.000 254.800 C 110.000 255.020,109.111 255.200,108.024 255.200 C 106.937 255.200,105.936 255.020,105.800 254.800 C 105.664 254.580,104.933 254.400,104.176 254.400 C 103.419 254.400,102.800 254.220,102.800 254.000 C 102.800 253.780,102.440 253.600,102.000 253.600 C 101.560 253.600,101.200 253.420,101.200 253.200 C 101.200 252.980,100.928 252.800,100.596 252.800 C 100.264 252.800,99.428 252.260,98.737 251.600 C 98.046 250.940,97.238 250.400,96.941 250.400 C 96.643 250.400,96.400 250.157,96.400 249.859 C 96.400 249.562,95.860 248.754,95.200 248.063 C 94.540 247.372,94.000 246.536,94.000 246.204 C 94.000 245.872,93.820 245.600,93.600 245.600 C 93.380 245.600,93.200 245.251,93.200 244.824 C 93.200 244.397,93.020 243.936,92.800 243.800 C 92.580 243.664,92.400 242.843,92.400 241.976 C 92.400 241.109,92.220 240.400,92.000 240.400 C 91.780 240.400,91.600 239.770,91.600 239.000 C 91.600 238.230,91.780 237.600,92.000 237.600 C 92.220 237.600,92.400 236.790,92.400 235.800 C 92.400 234.810,92.580 234.000,92.800 234.000 C 93.020 234.000,93.200 233.640,93.200 233.200 C 93.200 232.760,93.380 232.400,93.600 232.400 C 93.820 232.400,94.000 232.080,94.000 231.688 C 94.000 231.297,94.360 230.717,94.800 230.400 C 95.240 230.083,95.600 229.638,95.600 229.412 C 95.601 228.753,97.439 226.800,98.058 226.800 C 98.369 226.800,98.883 226.440,99.200 226.000 C 99.517 225.560,100.025 225.200,100.328 225.200 C 100.631 225.200,101.446 224.957,102.140 224.660 C 106.245 222.899,108.462 222.815,112.814 224.253 M295.172 223.661 C 295.957 223.915,297.167 224.365,297.860 224.661 C 298.554 224.958,299.343 225.200,299.614 225.200 C 299.884 225.200,300.397 225.516,300.753 225.903 C 301.109 226.289,301.875 226.849,302.456 227.147 C 303.037 227.444,303.756 228.163,304.053 228.744 C 304.351 229.325,304.911 230.091,305.297 230.447 C 305.684 230.803,306.000 231.388,306.000 231.747 C 306.000 232.106,306.180 232.400,306.400 232.400 C 306.620 232.400,306.800 232.749,306.800 233.176 C 306.800 233.603,306.980 234.064,307.200 234.200 C 307.420 234.336,307.600 235.146,307.600 236.000 C 307.600 236.854,307.780 237.664,308.000 237.800 C 308.220 237.936,308.400 238.577,308.400 239.224 C 308.400 239.871,308.220 240.400,308.000 240.400 C 307.780 240.400,307.600 241.120,307.600 242.000 C 307.600 242.880,307.420 243.600,307.200 243.600 C 306.980 243.600,306.800 243.962,306.800 244.405 C 306.800 246.345,301.104 252.800,299.393 252.800 C 299.067 252.800,298.800 252.980,298.800 253.200 C 298.800 253.420,298.440 253.600,298.000 253.600 C 297.560 253.600,297.200 253.780,297.200 254.000 C 297.200 254.220,296.581 254.400,295.824 254.400 C 295.067 254.400,294.336 254.580,294.200 254.800 C 294.064 255.020,293.063 255.200,291.976 255.200 C 290.889 255.200,290.000 255.020,290.000 254.800 C 290.000 254.580,289.370 254.400,288.600 254.400 C 287.830 254.400,287.200 254.220,287.200 254.000 C 287.200 253.780,286.966 253.600,286.680 253.600 C 285.944 253.600,284.007 252.659,284.003 252.300 C 284.001 252.135,283.725 252.000,283.389 252.000 C 282.645 252.000,279.200 248.627,279.200 247.899 C 279.200 247.612,278.840 247.117,278.400 246.800 C 277.960 246.483,277.600 245.813,277.600 245.312 C 277.600 244.810,277.420 244.400,277.200 244.400 C 276.980 244.400,276.800 243.860,276.800 243.200 C 276.800 242.540,276.620 242.000,276.400 242.000 C 276.172 242.000,276.000 240.808,276.000 239.224 C 276.000 237.697,276.180 236.336,276.400 236.200 C 276.620 236.064,276.800 235.434,276.800 234.800 C 276.800 234.166,276.980 233.536,277.200 233.400 C 277.420 233.264,277.600 232.843,277.600 232.465 C 277.600 232.086,277.960 231.517,278.400 231.200 C 278.840 230.883,279.200 230.388,279.200 230.101 C 279.200 229.373,282.645 226.000,283.389 226.000 C 283.725 226.000,284.000 225.769,284.000 225.487 C 284.000 225.205,284.405 224.938,284.900 224.892 C 285.395 224.847,286.700 224.465,287.800 224.043 C 290.114 223.156,293.124 223.000,295.172 223.661 " stroke="none" fill="#3cdc84" fill-rule="evenodd"></path><path id="path1" d="" stroke="none" fill="#40dc84" fill-rule="evenodd"></path><path id="path2" d="" stroke="none" fill="#40dc84" fill-rule="evenodd"></path><path id="path3" d="" stroke="none" fill="#40dc84" fill-rule="evenodd"></path><path id="path4" d="" stroke="none" fill="#40dc84" fill-rule="evenodd"></path></g></svg>