<svg id="Layer_1" data-name="Layer 1" xmlns="http://www.w3.org/2000/svg" viewBox="0 0 452 452"><path d="M413.94,150.79H182a30.88,30.88,0,0,0-30.87,30.87v232A30.87,30.87,0,0,0,182,444.49h232a30.88,30.88,0,0,0,30.88-30.87V181.68a30.89,30.89,0,0,0-30.88-30.89Zm1.84,260.56a3.3,3.3,0,0,1-3.31,3.3h-219a12.87,12.87,0,0,1-12.87-12.86V192.39a12.87,12.87,0,0,1,12.87-12.86h219a3.3,3.3,0,0,1,3.3,3.3Z" style="stroke:#000;stroke-linecap:round;stroke-linejoin:round;stroke-width:15px"/><path d="M312.69,202.65H284.25L208.94,392.89h32.37l15.86-44.26h82.57l17.17,44.26h29.73Zm-45,118.24,30.06-81.25,31.38,81.25Z" style="stroke:#000;stroke-linecap:round;stroke-linejoin:round;stroke-width:13px"/><path d="M304.29,7.87H34.21A25.92,25.92,0,0,0,8.29,33.79V232.51a25.92,25.92,0,0,0,25.92,25.91H304.29a25.93,25.93,0,0,0,25.93-25.91V33.79A25.93,25.93,0,0,0,304.29,7.87Zm5.54,168.88-40.29-35.19s-8.85-11.51-22.57.92c-12.55,11.34-35.05,35.26-38.86,39.27a.7.7,0,0,1-1,.06l-.06-.06L125.68,84s-12-9.29-23.06,2.21l-75,87.21V31.55A3.54,3.54,0,0,1,31.13,28H306.25a3.54,3.54,0,0,1,3.54,3.54Z" style="stroke:#000;stroke-miterlimit:10;stroke-width:15px"/><circle cx="250.95" cy="82.19" r="28.77" transform="translate(-12.35 102.29) rotate(-22.5)" style="stroke:#000;stroke-miterlimit:10;stroke-width:15px"/></svg>