<?xml version="1.0" standalone="no"?>
<!DOCTYPE svg PUBLIC "-//W3C//DTD SVG 20010904//EN"
 "http://www.w3.org/TR/2001/REC-SVG-20010904/DTD/svg10.dtd">
<svg version="1.0" xmlns="http://www.w3.org/2000/svg"
 width="512.000000pt" height="512.000000pt" viewBox="0 0 512.000000 512.000000"
 preserveAspectRatio="xMidYMid meet">

<g transform="translate(0.000000,512.000000) scale(0.100000,-0.100000)"
fill="#000000" stroke="none">
<path d="M3610 4675 c-312 -64 -563 -279 -671 -575 -64 -177 -136 -306 -242
-438 l-51 -62 -40 39 c-71 68 -137 90 -215 71 -95 -23 -162 -107 -162 -205 0
-65 17 -107 69 -166 l41 -45 -820 -820 c-451 -450 -844 -850 -874 -889 -106
-138 -181 -316 -206 -484 -25 -179 7 -443 67 -533 54 -83 183 -127 397 -136
241 -9 442 47 642 181 38 25 377 356 907 885 l847 846 53 -50 c39 -37 66 -54
102 -63 132 -33 261 70 260 209 -1 64 -19 104 -75 165 l-40 43 63 54 c117 102
225 162 387 217 104 35 173 68 241 114 255 173 400 448 400 758 0 429 -300
796 -722 883 -93 19 -267 20 -358 1z m-790 -1860 l175 -175 -835 -833 c-606
-604 -850 -841 -891 -865 -107 -63 -257 -99 -356 -87 l-52 6 -7 45 c-14 93 26
256 88 363 24 41 260 284 863 889 456 457 832 832 835 832 3 0 84 -79 180
-175z"/>
</g>
</svg>
