<svg id="svg" version="1.1" xmlns="http://www.w3.org/2000/svg" xmlns:xlink="http://www.w3.org/1999/xlink" width="400" height="400" viewBox="0, 0, 400,400"><g id="svgg"><path id="path0" d="M39.100 0.292 C 38.055 0.375,37.200 0.614,37.200 0.822 C 37.200 1.030,36.480 1.200,35.600 1.200 C 34.720 1.200,34.000 1.380,34.000 1.600 C 34.000 1.820,33.561 2.000,33.024 2.000 C 32.487 2.000,31.936 2.180,31.800 2.400 C 31.664 2.620,31.203 2.800,30.776 2.800 C 30.349 2.800,30.000 2.980,30.000 3.200 C 30.000 3.420,29.640 3.600,29.200 3.600 C 28.760 3.600,28.400 3.780,28.400 4.000 C 28.400 4.220,28.040 4.400,27.600 4.400 C 27.160 4.400,26.800 4.546,26.800 4.725 C 26.800 4.904,26.170 5.298,25.400 5.600 C 24.630 5.902,24.000 6.296,24.000 6.475 C 24.000 6.654,23.680 6.800,23.288 6.800 C 22.897 6.800,22.317 7.160,22.000 7.600 C 21.683 8.040,21.146 8.400,20.808 8.400 C 20.469 8.400,19.744 8.807,19.196 9.304 C 18.648 9.801,17.390 10.836,16.400 11.603 C 14.144 13.351,13.351 14.144,11.603 16.400 C 10.836 17.390,9.801 18.648,9.304 19.196 C 8.807 19.744,8.400 20.469,8.400 20.808 C 8.400 21.146,8.040 21.683,7.600 22.000 C 7.160 22.317,6.800 22.897,6.800 23.288 C 6.800 23.680,6.654 24.000,6.475 24.000 C 6.296 24.000,5.902 24.630,5.600 25.400 C 5.298 26.170,4.904 26.800,4.725 26.800 C 4.546 26.800,4.400 27.160,4.400 27.600 C 4.400 28.040,4.220 28.400,4.000 28.400 C 3.780 28.400,3.600 28.760,3.600 29.200 C 3.600 29.640,3.420 30.000,3.200 30.000 C 2.980 30.000,2.800 30.349,2.800 30.776 C 2.800 31.203,2.620 31.664,2.400 31.800 C 2.180 31.936,2.000 32.487,2.000 33.024 C 2.000 33.561,1.820 34.000,1.600 34.000 C 1.380 34.000,1.200 34.705,1.200 35.567 C 1.200 36.464,0.987 37.204,0.700 37.300 C -0.036 37.545,-0.036 362.455,0.700 362.700 C 0.987 362.796,1.200 363.536,1.200 364.433 C 1.200 365.295,1.380 366.000,1.600 366.000 C 1.820 366.000,2.000 366.439,2.000 366.976 C 2.000 367.513,2.180 368.064,2.400 368.200 C 2.620 368.336,2.800 368.797,2.800 369.224 C 2.800 369.651,2.980 370.000,3.200 370.000 C 3.420 370.000,3.600 370.360,3.600 370.800 C 3.600 371.240,3.780 371.600,4.000 371.600 C 4.220 371.600,4.400 371.960,4.400 372.400 C 4.400 372.840,4.580 373.200,4.800 373.200 C 5.020 373.200,5.200 373.560,5.200 374.000 C 5.200 374.440,5.380 374.800,5.600 374.800 C 5.820 374.800,6.000 375.070,6.000 375.400 C 6.000 375.730,6.180 376.000,6.400 376.000 C 6.620 376.000,6.800 376.320,6.800 376.712 C 6.800 377.103,7.160 377.683,7.600 378.000 C 8.040 378.317,8.400 378.852,8.400 379.188 C 8.400 379.525,9.120 380.588,10.000 381.551 C 10.880 382.513,11.600 383.421,11.600 383.567 C 11.600 384.000,14.063 386.478,16.204 388.200 C 17.298 389.080,18.643 390.205,19.192 390.700 C 19.742 391.195,20.469 391.600,20.808 391.600 C 21.146 391.600,21.683 391.960,22.000 392.400 C 22.317 392.840,22.897 393.200,23.288 393.200 C 23.680 393.200,24.000 393.346,24.000 393.525 C 24.000 393.704,24.630 394.098,25.400 394.400 C 26.170 394.702,26.800 395.096,26.800 395.275 C 26.800 395.454,27.160 395.600,27.600 395.600 C 28.040 395.600,28.400 395.780,28.400 396.000 C 28.400 396.220,28.760 396.400,29.200 396.400 C 29.640 396.400,30.000 396.580,30.000 396.800 C 30.000 397.020,30.349 397.200,30.776 397.200 C 31.203 397.200,31.664 397.380,31.800 397.600 C 31.936 397.820,32.476 398.000,33.000 398.000 C 33.524 398.000,34.064 398.180,34.200 398.400 C 34.336 398.620,35.052 398.800,35.790 398.800 C 36.529 398.800,37.208 399.025,37.300 399.300 C 37.545 400.036,362.455 400.036,362.700 399.300 C 362.792 399.025,363.471 398.800,364.210 398.800 C 364.948 398.800,365.664 398.620,365.800 398.400 C 365.936 398.180,366.476 398.000,367.000 398.000 C 367.524 398.000,368.064 397.820,368.200 397.600 C 368.336 397.380,368.797 397.200,369.224 397.200 C 369.651 397.200,370.000 397.020,370.000 396.800 C 370.000 396.580,370.360 396.400,370.800 396.400 C 371.240 396.400,371.600 396.220,371.600 396.000 C 371.600 395.780,371.960 395.600,372.400 395.600 C 372.840 395.600,373.200 395.420,373.200 395.200 C 373.200 394.980,373.560 394.800,374.000 394.800 C 374.440 394.800,374.800 394.620,374.800 394.400 C 374.800 394.180,375.070 394.000,375.400 394.000 C 375.730 394.000,376.000 393.820,376.000 393.600 C 376.000 393.380,376.320 393.200,376.712 393.200 C 377.103 393.200,377.683 392.840,378.000 392.400 C 378.317 391.960,378.854 391.600,379.192 391.600 C 379.531 391.600,380.256 391.195,380.804 390.700 C 381.352 390.205,382.430 389.330,383.200 388.755 C 385.199 387.263,386.809 385.668,388.404 383.600 C 389.167 382.610,390.199 381.352,390.696 380.804 C 391.193 380.256,391.600 379.531,391.600 379.192 C 391.600 378.854,391.960 378.317,392.400 378.000 C 392.840 377.683,393.200 377.103,393.200 376.712 C 393.200 376.320,393.380 376.000,393.600 376.000 C 393.820 376.000,394.000 375.730,394.000 375.400 C 394.000 375.070,394.180 374.800,394.400 374.800 C 394.620 374.800,394.800 374.440,394.800 374.000 C 394.800 373.560,394.980 373.200,395.200 373.200 C 395.420 373.200,395.600 372.840,395.600 372.400 C 395.600 371.960,395.780 371.600,396.000 371.600 C 396.220 371.600,396.400 371.240,396.400 370.800 C 396.400 370.360,396.580 370.000,396.800 370.000 C 397.020 370.000,397.200 369.651,397.200 369.224 C 397.200 368.797,397.380 368.336,397.600 368.200 C 397.820 368.064,398.000 367.524,398.000 367.000 C 398.000 366.476,398.180 365.936,398.400 365.800 C 398.620 365.664,398.800 364.948,398.800 364.210 C 398.800 363.471,399.025 362.792,399.300 362.700 C 399.699 362.567,399.800 329.671,399.800 200.000 C 399.800 70.329,399.699 37.433,399.300 37.300 C 399.025 37.208,398.800 36.529,398.800 35.790 C 398.800 35.052,398.620 34.336,398.400 34.200 C 398.180 34.064,398.000 33.524,398.000 33.000 C 398.000 32.476,397.820 31.936,397.600 31.800 C 397.380 31.664,397.200 31.203,397.200 30.776 C 397.200 30.349,397.020 30.000,396.800 30.000 C 396.580 30.000,396.400 29.640,396.400 29.200 C 396.400 28.760,396.220 28.400,396.000 28.400 C 395.780 28.400,395.600 28.040,395.600 27.600 C 395.600 27.160,395.454 26.800,395.275 26.800 C 395.096 26.800,394.702 26.170,394.400 25.400 C 394.098 24.630,393.704 24.000,393.525 24.000 C 393.346 24.000,393.200 23.680,393.200 23.288 C 393.200 22.897,392.840 22.317,392.400 22.000 C 391.960 21.683,391.600 21.146,391.600 20.808 C 391.600 20.469,391.193 19.744,390.696 19.196 C 390.199 18.648,389.167 17.390,388.404 16.400 C 386.809 14.332,385.199 12.737,383.200 11.245 C 382.430 10.670,381.352 9.795,380.804 9.300 C 380.256 8.805,379.531 8.400,379.192 8.400 C 378.854 8.400,378.317 8.040,378.000 7.600 C 377.683 7.160,377.103 6.800,376.712 6.800 C 376.320 6.800,376.000 6.620,376.000 6.400 C 376.000 6.180,375.730 6.000,375.400 6.000 C 375.070 6.000,374.800 5.820,374.800 5.600 C 374.800 5.380,374.440 5.200,374.000 5.200 C 373.560 5.200,373.199 5.065,373.197 4.900 C 373.193 4.541,371.256 3.600,370.520 3.600 C 370.234 3.600,370.000 3.420,370.000 3.200 C 370.000 2.980,369.651 2.800,369.224 2.800 C 368.797 2.800,368.336 2.620,368.200 2.400 C 368.064 2.180,367.513 2.000,366.976 2.000 C 366.439 2.000,366.000 1.820,366.000 1.600 C 366.000 1.380,365.295 1.200,364.433 1.200 C 363.536 1.200,362.796 0.987,362.700 0.700 C 362.544 0.231,44.875 -0.170,39.100 0.292 M353.800 21.200 C 353.936 21.420,354.847 21.600,355.824 21.600 C 356.801 21.600,357.600 21.780,357.600 22.000 C 357.600 22.220,357.962 22.400,358.405 22.400 C 358.848 22.400,359.523 22.551,359.905 22.735 C 360.287 22.920,361.593 23.550,362.806 24.135 C 364.020 24.721,365.195 25.200,365.418 25.200 C 365.641 25.200,366.083 25.560,366.400 26.000 C 366.717 26.440,367.210 26.800,367.496 26.800 C 368.172 26.800,373.200 31.828,373.200 32.504 C 373.200 32.790,373.560 33.283,374.000 33.600 C 374.440 33.917,374.800 34.359,374.800 34.582 C 374.800 34.805,375.279 35.980,375.865 37.194 C 376.450 38.407,377.080 39.713,377.265 40.095 C 377.449 40.477,377.600 41.152,377.600 41.595 C 377.600 42.038,377.780 42.400,378.000 42.400 C 378.220 42.400,378.400 43.199,378.400 44.176 C 378.400 45.153,378.580 46.064,378.800 46.200 C 379.066 46.364,379.200 98.063,379.200 200.000 C 379.200 301.937,379.066 353.636,378.800 353.800 C 378.580 353.936,378.400 354.847,378.400 355.824 C 378.400 356.801,378.220 357.600,378.000 357.600 C 377.780 357.600,377.600 357.962,377.600 358.405 C 377.600 358.848,377.440 359.523,377.245 359.905 C 376.078 362.189,374.800 365.069,374.800 365.417 C 374.800 365.641,374.440 366.083,374.000 366.400 C 373.560 366.717,373.200 367.197,373.200 367.466 C 373.200 368.104,368.104 373.200,367.466 373.200 C 367.197 373.200,366.717 373.560,366.400 374.000 C 366.083 374.440,365.641 374.800,365.418 374.800 C 365.195 374.800,364.020 375.279,362.806 375.865 C 361.593 376.450,360.287 377.080,359.905 377.265 C 359.523 377.449,358.848 377.600,358.405 377.600 C 357.962 377.600,357.600 377.780,357.600 378.000 C 357.600 378.220,356.801 378.400,355.824 378.400 C 354.847 378.400,353.936 378.580,353.800 378.800 C 353.457 379.355,46.543 379.355,46.200 378.800 C 46.064 378.580,45.153 378.400,44.176 378.400 C 43.199 378.400,42.400 378.220,42.400 378.000 C 42.400 377.780,42.038 377.600,41.595 377.600 C 41.152 377.600,40.477 377.440,40.095 377.245 C 37.811 376.078,34.931 374.800,34.583 374.800 C 34.359 374.800,33.917 374.440,33.600 374.000 C 33.283 373.560,32.790 373.200,32.504 373.200 C 31.828 373.200,26.800 368.172,26.800 367.496 C 26.800 367.210,26.440 366.717,26.000 366.400 C 25.560 366.083,25.200 365.641,25.200 365.417 C 25.200 365.069,23.922 362.189,22.755 359.905 C 22.560 359.523,22.400 358.848,22.400 358.405 C 22.400 357.962,22.220 357.600,22.000 357.600 C 21.780 357.600,21.600 356.801,21.600 355.824 C 21.600 354.847,21.420 353.936,21.200 353.800 C 20.645 353.457,20.645 46.543,21.200 46.200 C 21.420 46.064,21.600 45.153,21.600 44.176 C 21.600 43.199,21.780 42.400,22.000 42.400 C 22.220 42.400,22.400 42.038,22.400 41.595 C 22.400 40.730,22.489 40.508,24.128 37.300 C 24.717 36.145,25.200 34.969,25.200 34.688 C 25.200 34.407,25.560 33.917,26.000 33.600 C 26.440 33.283,26.800 32.790,26.800 32.504 C 26.800 31.828,31.828 26.800,32.504 26.800 C 32.790 26.800,33.283 26.440,33.600 26.000 C 33.917 25.560,34.408 25.200,34.691 25.200 C 34.974 25.200,36.150 24.726,37.303 24.148 C 38.456 23.569,39.713 22.939,40.095 22.748 C 40.477 22.556,41.152 22.400,41.595 22.400 C 42.038 22.400,42.400 22.220,42.400 22.000 C 42.400 21.780,43.199 21.600,44.176 21.600 C 45.153 21.600,46.064 21.420,46.200 21.200 C 46.364 20.934,98.063 20.800,200.000 20.800 C 301.937 20.800,353.636 20.934,353.800 21.200 M142.000 90.000 C 142.000 90.220,141.100 90.400,140.000 90.400 C 138.900 90.400,138.000 90.562,138.000 90.760 C 138.000 90.958,137.235 91.205,136.300 91.310 C 133.081 91.672,126.090 94.285,125.667 95.285 C 125.593 95.458,125.228 95.600,124.855 95.600 C 124.482 95.600,123.917 95.960,123.600 96.400 C 123.283 96.840,122.743 97.200,122.400 97.200 C 122.057 97.200,121.517 97.560,121.200 98.000 C 120.883 98.440,120.388 98.800,120.101 98.800 C 119.814 98.800,118.787 99.592,117.819 100.560 C 116.851 101.528,115.543 102.625,114.911 102.998 C 114.280 103.371,113.322 104.329,112.782 105.128 C 112.242 105.926,111.133 107.273,110.317 108.120 C 109.502 108.968,108.725 110.007,108.590 110.430 C 108.456 110.854,108.178 111.200,107.973 111.200 C 107.768 111.200,107.600 111.470,107.600 111.800 C 107.600 112.130,107.420 112.400,107.200 112.400 C 106.980 112.400,106.800 112.670,106.800 113.000 C 106.800 113.330,106.620 113.600,106.400 113.600 C 106.180 113.600,106.000 113.960,106.000 114.400 C 106.000 114.840,105.820 115.200,105.600 115.200 C 105.380 115.200,105.200 115.560,105.200 116.000 C 105.200 116.440,105.020 116.800,104.800 116.800 C 104.580 116.800,104.400 117.160,104.400 117.600 C 104.400 118.040,104.220 118.400,104.000 118.400 C 103.780 118.400,103.600 118.760,103.600 119.200 C 103.600 119.640,103.420 120.000,103.200 120.000 C 102.980 120.000,102.800 120.540,102.800 121.200 C 102.800 121.860,102.620 122.400,102.400 122.400 C 102.180 122.400,102.000 122.749,102.000 123.176 C 102.000 123.603,101.820 124.064,101.600 124.200 C 101.380 124.336,101.200 124.966,101.200 125.600 C 101.200 126.234,101.020 126.864,100.800 127.000 C 100.580 127.136,100.400 128.047,100.400 129.024 C 100.400 130.001,100.220 130.800,100.000 130.800 C 99.735 130.800,99.600 154.133,99.600 200.000 C 99.600 245.867,99.735 269.200,100.000 269.200 C 100.220 269.200,100.400 269.999,100.400 270.976 C 100.400 271.953,100.580 272.864,100.800 273.000 C 101.020 273.136,101.200 273.766,101.200 274.400 C 101.200 275.034,101.380 275.664,101.600 275.800 C 101.820 275.936,102.000 276.397,102.000 276.824 C 102.000 277.251,102.180 277.600,102.400 277.600 C 102.620 277.600,102.800 278.140,102.800 278.800 C 102.800 279.460,102.980 280.000,103.200 280.000 C 103.420 280.000,103.600 280.360,103.600 280.800 C 103.600 281.240,103.780 281.600,104.000 281.600 C 104.220 281.600,104.400 281.960,104.400 282.400 C 104.400 282.840,104.580 283.200,104.800 283.200 C 105.020 283.200,105.200 283.560,105.200 284.000 C 105.200 284.440,105.380 284.800,105.600 284.800 C 105.820 284.800,106.000 285.160,106.000 285.600 C 106.000 286.040,106.180 286.400,106.400 286.400 C 106.620 286.400,106.800 286.670,106.800 287.000 C 106.800 287.330,106.980 287.600,107.200 287.600 C 107.420 287.600,107.600 287.870,107.600 288.200 C 107.600 288.530,107.768 288.800,107.973 288.800 C 108.178 288.800,108.456 289.146,108.590 289.570 C 108.725 289.993,109.502 291.032,110.317 291.880 C 111.133 292.727,112.242 294.074,112.782 294.872 C 113.322 295.671,114.280 296.629,114.911 297.002 C 115.543 297.375,116.851 298.472,117.819 299.440 C 118.787 300.408,119.814 301.200,120.101 301.200 C 120.388 301.200,120.883 301.560,121.200 302.000 C 121.517 302.440,122.097 302.800,122.488 302.800 C 122.880 302.800,123.200 302.950,123.200 303.132 C 123.200 303.315,123.695 303.720,124.300 304.032 C 124.905 304.344,125.490 304.699,125.600 304.823 C 125.976 305.243,131.148 307.600,131.695 307.600 C 131.995 307.600,132.419 307.779,132.638 307.998 C 132.856 308.216,134.152 308.512,135.518 308.654 C 136.883 308.797,138.000 309.068,138.000 309.257 C 138.000 309.446,138.900 309.600,140.000 309.600 C 141.100 309.600,142.000 309.780,142.000 310.000 C 142.000 310.259,146.667 310.400,155.200 310.400 C 163.733 310.400,168.400 310.259,168.400 310.000 C 168.400 309.780,169.300 309.600,170.400 309.600 C 171.500 309.600,172.400 309.420,172.400 309.200 C 172.400 308.980,172.886 308.800,173.480 308.800 C 174.865 308.800,179.200 307.520,179.200 307.111 C 179.200 306.940,179.481 306.800,179.825 306.800 C 180.706 306.800,185.600 304.392,185.600 303.958 C 185.600 303.761,185.960 303.600,186.400 303.600 C 186.840 303.600,187.200 303.420,187.200 303.200 C 187.200 302.980,187.443 302.800,187.741 302.800 C 188.038 302.800,188.846 302.260,189.537 301.600 C 190.228 300.940,190.890 300.400,191.009 300.400 C 191.292 300.400,200.400 291.292,200.400 291.009 C 200.400 290.890,200.940 290.228,201.600 289.537 C 202.260 288.846,202.800 288.038,202.800 287.741 C 202.800 287.443,202.935 287.199,203.100 287.197 C 203.265 287.195,203.605 286.790,203.855 286.297 C 204.105 285.804,204.864 284.320,205.542 283.000 C 206.220 281.680,206.781 280.285,206.787 279.900 C 206.794 279.515,206.940 279.200,207.111 279.200 C 207.520 279.200,208.800 274.865,208.800 273.480 C 208.800 272.886,208.980 272.400,209.200 272.400 C 209.420 272.400,209.600 271.500,209.600 270.400 C 209.600 269.300,209.780 268.400,210.000 268.400 C 210.265 268.400,210.400 245.333,210.400 200.000 C 210.400 154.667,210.265 131.600,210.000 131.600 C 209.780 131.600,209.600 130.700,209.600 129.600 C 209.600 128.500,209.420 127.600,209.200 127.600 C 208.980 127.600,208.800 127.114,208.800 126.520 C 208.800 125.135,207.520 120.800,207.111 120.800 C 206.940 120.800,206.800 120.519,206.800 120.175 C 206.800 119.294,204.392 114.400,203.958 114.400 C 203.761 114.400,203.600 114.040,203.600 113.600 C 203.600 113.160,203.420 112.800,203.200 112.800 C 202.980 112.800,202.800 112.557,202.800 112.259 C 202.800 111.962,202.260 111.154,201.600 110.463 C 200.940 109.772,200.400 109.106,200.400 108.983 C 200.400 108.171,188.589 97.220,187.700 97.207 C 187.425 97.203,187.199 97.065,187.197 96.900 C 187.195 96.735,186.790 96.395,186.297 96.145 C 185.804 95.895,184.320 95.136,183.000 94.458 C 181.680 93.780,180.285 93.219,179.900 93.213 C 179.515 93.206,179.200 93.050,179.200 92.867 C 179.200 92.504,176.277 91.652,173.900 91.323 C 173.075 91.209,172.400 90.955,172.400 90.758 C 172.400 90.561,171.500 90.400,170.400 90.400 C 169.300 90.400,168.400 90.220,168.400 90.000 C 168.400 89.741,163.733 89.600,155.200 89.600 C 146.667 89.600,142.000 89.741,142.000 90.000 M281.600 90.000 C 281.600 90.220,280.700 90.400,279.600 90.400 C 278.500 90.400,277.600 90.561,277.600 90.758 C 277.600 90.955,276.925 91.209,276.100 91.323 C 273.723 91.652,270.800 92.504,270.800 92.867 C 270.800 93.050,270.485 93.206,270.100 93.213 C 269.265 93.228,263.573 96.025,262.800 96.801 C 262.690 96.911,262.105 97.256,261.500 97.568 C 260.895 97.880,260.400 98.285,260.400 98.468 C 260.400 98.650,260.215 98.800,259.989 98.800 C 259.452 98.800,248.800 109.452,248.800 109.989 C 248.800 110.215,248.650 110.400,248.468 110.400 C 248.285 110.400,247.880 110.895,247.568 111.500 C 247.256 112.105,246.911 112.690,246.801 112.800 C 246.025 113.573,243.228 119.265,243.213 120.100 C 243.206 120.485,243.050 120.800,242.867 120.800 C 242.504 120.800,241.652 123.723,241.323 126.100 C 241.209 126.925,240.955 127.600,240.758 127.600 C 240.561 127.600,240.400 128.500,240.400 129.600 C 240.400 130.700,240.220 131.600,240.000 131.600 C 239.739 131.600,239.600 138.000,239.600 150.000 C 239.600 162.000,239.739 168.400,240.000 168.400 C 240.220 168.400,240.400 169.300,240.400 170.400 C 240.400 171.500,240.561 172.400,240.758 172.400 C 240.955 172.400,241.209 173.075,241.323 173.900 C 241.652 176.277,242.504 179.200,242.867 179.200 C 243.050 179.200,243.206 179.515,243.213 179.900 C 243.219 180.285,243.780 181.680,244.458 183.000 C 245.136 184.320,245.895 185.804,246.145 186.297 C 246.395 186.790,246.735 187.195,246.900 187.197 C 247.065 187.199,247.203 187.425,247.207 187.700 C 247.220 188.589,258.171 200.400,258.983 200.400 C 259.106 200.400,259.772 200.940,260.463 201.600 C 261.154 202.260,261.962 202.800,262.259 202.800 C 262.557 202.800,262.800 202.980,262.800 203.200 C 262.800 203.420,263.160 203.600,263.600 203.600 C 264.040 203.600,264.400 203.757,264.400 203.949 C 264.400 204.363,269.374 206.800,270.218 206.800 C 270.538 206.800,270.800 206.940,270.800 207.111 C 270.800 207.520,275.135 208.800,276.520 208.800 C 277.114 208.800,277.600 208.980,277.600 209.200 C 277.600 209.420,278.500 209.600,279.600 209.600 C 280.700 209.600,281.600 209.780,281.600 210.000 C 281.600 210.257,285.400 210.400,292.200 210.400 C 299.000 210.400,302.800 210.543,302.800 210.800 C 302.800 211.020,303.700 211.200,304.800 211.200 C 305.900 211.200,306.800 211.380,306.800 211.600 C 306.800 211.820,307.340 212.000,308.000 212.000 C 308.660 212.000,309.200 212.180,309.200 212.400 C 309.200 212.620,309.650 212.800,310.200 212.800 C 310.750 212.800,311.200 212.980,311.200 213.200 C 311.200 213.420,311.560 213.600,312.000 213.600 C 312.440 213.600,312.800 213.780,312.800 214.000 C 312.800 214.220,313.160 214.400,313.600 214.400 C 314.040 214.400,314.400 214.580,314.400 214.800 C 314.400 215.020,314.643 215.200,314.941 215.200 C 315.238 215.200,316.046 215.740,316.737 216.400 C 317.428 217.060,318.139 217.600,318.318 217.600 C 318.830 217.600,321.337 220.058,322.399 221.600 C 322.929 222.370,323.641 223.270,323.981 223.600 C 324.734 224.330,326.800 228.587,326.800 229.409 C 326.800 229.734,326.980 230.000,327.200 230.000 C 327.420 230.000,327.600 230.540,327.600 231.200 C 327.600 231.860,327.780 232.400,328.000 232.400 C 328.220 232.400,328.400 233.199,328.400 234.176 C 328.400 235.153,328.580 236.064,328.800 236.200 C 329.054 236.357,329.200 241.396,329.200 250.000 C 329.200 258.604,329.054 263.643,328.800 263.800 C 328.580 263.936,328.400 264.847,328.400 265.824 C 328.400 266.801,328.220 267.600,328.000 267.600 C 327.780 267.600,327.600 268.140,327.600 268.800 C 327.600 269.460,327.420 270.000,327.200 270.000 C 326.980 270.000,326.800 270.266,326.800 270.591 C 326.800 271.413,324.734 275.670,323.981 276.400 C 323.641 276.730,322.929 277.630,322.399 278.400 C 321.337 279.942,318.830 282.400,318.318 282.400 C 318.139 282.400,317.428 282.940,316.737 283.600 C 316.046 284.260,315.238 284.800,314.941 284.800 C 314.643 284.800,314.400 284.980,314.400 285.200 C 314.400 285.420,314.040 285.600,313.600 285.600 C 313.160 285.600,312.800 285.780,312.800 286.000 C 312.800 286.220,312.440 286.400,312.000 286.400 C 311.560 286.400,311.200 286.580,311.200 286.800 C 311.200 287.020,310.750 287.200,310.200 287.200 C 309.650 287.200,309.200 287.380,309.200 287.600 C 309.200 287.820,308.660 288.000,308.000 288.000 C 307.340 288.000,306.800 288.180,306.800 288.400 C 306.800 288.620,305.900 288.800,304.800 288.800 C 303.700 288.800,302.800 288.980,302.800 289.200 C 302.800 289.453,300.008 289.600,295.224 289.600 C 290.604 289.600,287.551 289.444,287.400 289.200 C 287.264 288.980,286.263 288.800,285.176 288.800 C 284.089 288.800,283.200 288.620,283.200 288.400 C 283.200 288.180,282.660 288.000,282.000 288.000 C 281.340 288.000,280.800 287.820,280.800 287.600 C 280.800 287.380,280.260 287.200,279.600 287.200 C 278.940 287.200,278.400 287.020,278.400 286.800 C 278.400 286.580,278.040 286.400,277.600 286.400 C 277.160 286.400,276.800 286.220,276.800 286.000 C 276.800 285.780,276.480 285.600,276.088 285.600 C 275.697 285.600,275.117 285.240,274.800 284.800 C 274.483 284.360,274.075 284.000,273.894 284.000 C 273.712 284.000,273.144 283.595,272.632 283.100 C 271.107 281.626,270.016 280.800,269.595 280.800 C 269.378 280.800,269.200 280.622,269.200 280.405 C 269.200 279.984,268.374 278.893,266.900 277.368 C 266.405 276.856,266.000 276.288,266.000 276.106 C 266.000 275.925,265.640 275.517,265.200 275.200 C 264.760 274.883,264.400 274.303,264.400 273.912 C 264.400 273.520,264.220 273.200,264.000 273.200 C 263.780 273.200,263.600 272.840,263.600 272.400 C 263.600 271.960,263.420 271.600,263.200 271.600 C 262.980 271.600,262.800 271.060,262.800 270.400 C 262.800 269.740,262.620 269.200,262.400 269.200 C 262.180 269.200,262.000 268.660,262.000 268.000 C 262.000 267.340,261.820 266.800,261.600 266.800 C 261.380 266.800,261.200 265.936,261.200 264.880 C 261.200 263.824,261.032 262.789,260.827 262.580 C 260.621 262.371,260.396 261.480,260.327 260.600 L 260.200 259.000 250.000 259.000 L 239.800 259.000 239.687 263.700 C 239.615 266.736,239.721 268.400,239.987 268.400 C 240.216 268.400,240.400 269.292,240.400 270.400 C 240.400 271.500,240.561 272.400,240.758 272.400 C 240.955 272.400,241.209 273.075,241.323 273.900 C 241.652 276.277,242.504 279.200,242.867 279.200 C 243.050 279.200,243.206 279.515,243.213 279.900 C 243.219 280.285,243.780 281.680,244.458 283.000 C 245.136 284.320,245.895 285.804,246.145 286.297 C 246.395 286.790,246.735 287.195,246.900 287.197 C 247.065 287.199,247.203 287.425,247.207 287.700 C 247.220 288.589,258.171 300.400,258.983 300.400 C 259.106 300.400,259.772 300.940,260.463 301.600 C 261.154 302.260,261.962 302.800,262.259 302.800 C 262.557 302.800,262.800 302.980,262.800 303.200 C 262.800 303.420,263.160 303.600,263.600 303.600 C 264.040 303.600,264.400 303.761,264.400 303.958 C 264.400 304.392,269.294 306.800,270.175 306.800 C 270.519 306.800,270.800 306.940,270.800 307.111 C 270.800 307.520,275.135 308.800,276.520 308.800 C 277.114 308.800,277.600 308.980,277.600 309.200 C 277.600 309.420,278.500 309.600,279.600 309.600 C 280.700 309.600,281.600 309.780,281.600 310.000 C 281.600 310.548,307.861 310.548,308.200 310.000 C 308.336 309.780,309.247 309.600,310.224 309.600 C 311.201 309.600,312.000 309.446,312.000 309.257 C 312.000 309.068,313.078 308.801,314.395 308.664 C 315.712 308.526,317.107 308.251,317.495 308.053 C 317.883 307.855,318.650 307.514,319.200 307.296 C 321.617 306.334,325.619 304.242,326.359 303.553 C 326.803 303.139,327.404 302.800,327.695 302.800 C 327.986 302.800,328.483 302.440,328.800 302.000 C 329.117 301.560,329.612 301.200,329.899 301.200 C 330.186 301.200,331.213 300.408,332.181 299.440 C 333.149 298.472,334.457 297.375,335.089 297.002 C 335.720 296.629,336.678 295.671,337.218 294.872 C 337.758 294.074,338.867 292.727,339.683 291.880 C 340.498 291.032,341.275 289.993,341.410 289.570 C 341.544 289.146,341.822 288.800,342.027 288.800 C 342.232 288.800,342.400 288.564,342.400 288.275 C 342.400 287.987,342.760 287.364,343.200 286.892 C 343.640 286.420,344.000 285.756,344.000 285.417 C 344.000 285.078,344.180 284.800,344.400 284.800 C 344.620 284.800,344.800 284.440,344.800 284.000 C 344.800 283.560,344.980 283.200,345.200 283.200 C 345.420 283.200,345.600 282.840,345.600 282.400 C 345.600 281.960,345.780 281.600,346.000 281.600 C 346.220 281.600,346.400 281.240,346.400 280.800 C 346.400 280.360,346.580 280.000,346.800 280.000 C 347.020 280.000,347.200 279.460,347.200 278.800 C 347.200 278.140,347.380 277.600,347.600 277.600 C 347.820 277.600,348.000 277.161,348.000 276.624 C 348.000 276.087,348.180 275.536,348.400 275.400 C 348.620 275.264,348.800 274.724,348.800 274.200 C 348.800 273.676,348.980 273.136,349.200 273.000 C 349.420 272.864,349.600 271.953,349.600 270.976 C 349.600 269.999,349.780 269.200,350.000 269.200 C 350.261 269.200,350.400 262.533,350.400 250.000 C 350.400 237.467,350.261 230.800,350.000 230.800 C 349.780 230.800,349.600 230.001,349.600 229.024 C 349.600 228.047,349.420 227.136,349.200 227.000 C 348.980 226.864,348.800 226.311,348.800 225.771 C 348.800 225.231,348.620 224.432,348.400 223.995 C 348.180 223.558,347.820 222.842,347.600 222.405 C 347.380 221.968,347.200 221.248,347.200 220.805 C 347.200 220.362,347.020 220.000,346.800 220.000 C 346.580 220.000,346.400 219.640,346.400 219.200 C 346.400 218.760,346.220 218.400,346.000 218.400 C 345.780 218.400,345.600 218.040,345.600 217.600 C 345.600 217.160,345.420 216.800,345.200 216.800 C 344.980 216.800,344.800 216.440,344.800 216.000 C 344.800 215.560,344.620 215.200,344.400 215.200 C 344.180 215.200,344.000 214.880,344.000 214.488 C 344.000 214.097,343.640 213.517,343.200 213.200 C 342.760 212.883,342.400 212.303,342.400 211.912 C 342.400 211.520,342.259 211.200,342.086 211.200 C 341.914 211.200,341.430 210.615,341.011 209.900 C 340.592 209.185,339.787 208.150,339.222 207.600 C 338.657 207.050,337.754 205.942,337.216 205.138 C 336.677 204.334,335.720 203.371,335.089 202.998 C 334.457 202.625,333.149 201.528,332.181 200.560 C 331.213 199.592,330.186 198.800,329.899 198.800 C 329.612 198.800,329.117 198.440,328.800 198.000 C 328.483 197.560,327.943 197.200,327.600 197.200 C 327.257 197.200,326.717 196.840,326.400 196.400 C 326.083 195.960,325.518 195.600,325.145 195.600 C 324.772 195.600,324.407 195.458,324.333 195.285 C 323.910 194.285,316.919 191.672,313.700 191.310 C 312.765 191.205,312.000 190.958,312.000 190.760 C 312.000 190.562,311.201 190.400,310.224 190.400 C 309.247 190.400,308.336 190.220,308.200 190.000 C 308.046 189.750,304.137 189.600,297.800 189.600 C 291.463 189.600,287.554 189.450,287.400 189.200 C 287.264 188.980,286.263 188.800,285.176 188.800 C 284.089 188.800,283.200 188.620,283.200 188.400 C 283.200 188.180,282.660 188.000,282.000 188.000 C 281.340 188.000,280.800 187.820,280.800 187.600 C 280.800 187.380,280.260 187.200,279.600 187.200 C 278.940 187.200,278.400 187.020,278.400 186.800 C 278.400 186.580,278.040 186.400,277.600 186.400 C 277.160 186.400,276.800 186.220,276.800 186.000 C 276.800 185.780,276.480 185.600,276.088 185.600 C 275.697 185.600,275.117 185.240,274.800 184.800 C 274.483 184.360,274.075 184.000,273.894 184.000 C 273.712 184.000,273.127 183.563,272.593 183.029 C 272.059 182.495,271.101 181.751,270.465 181.375 C 269.829 180.999,269.001 180.171,268.625 179.535 C 268.249 178.899,267.505 177.941,266.971 177.407 C 266.437 176.873,266.000 176.288,266.000 176.106 C 266.000 175.925,265.640 175.517,265.200 175.200 C 264.760 174.883,264.400 174.303,264.400 173.912 C 264.400 173.520,264.220 173.200,264.000 173.200 C 263.780 173.200,263.600 172.840,263.600 172.400 C 263.600 171.960,263.420 171.600,263.200 171.600 C 262.980 171.600,262.800 171.060,262.800 170.400 C 262.800 169.740,262.620 169.200,262.400 169.200 C 262.180 169.200,262.000 168.660,262.000 168.000 C 262.000 167.340,261.820 166.800,261.600 166.800 C 261.380 166.800,261.200 165.911,261.200 164.824 C 261.200 163.737,261.020 162.736,260.800 162.600 C 260.547 162.444,260.400 157.804,260.400 150.000 C 260.400 142.196,260.547 137.556,260.800 137.400 C 261.020 137.264,261.200 136.263,261.200 135.176 C 261.200 134.089,261.380 133.200,261.600 133.200 C 261.820 133.200,262.000 132.660,262.000 132.000 C 262.000 131.340,262.180 130.800,262.400 130.800 C 262.620 130.800,262.800 130.260,262.800 129.600 C 262.800 128.940,262.980 128.400,263.200 128.400 C 263.420 128.400,263.600 128.040,263.600 127.600 C 263.600 127.160,263.780 126.800,264.000 126.800 C 264.220 126.800,264.400 126.480,264.400 126.088 C 264.400 125.697,264.760 125.117,265.200 124.800 C 265.640 124.483,266.000 124.075,266.000 123.894 C 266.000 123.712,266.437 123.127,266.971 122.593 C 267.505 122.059,268.249 121.101,268.625 120.465 C 269.001 119.829,269.779 119.024,270.354 118.677 C 270.929 118.330,271.887 117.585,272.483 117.023 C 273.078 116.460,273.713 116.000,273.894 116.000 C 274.075 116.000,274.483 115.640,274.800 115.200 C 275.117 114.760,275.697 114.400,276.088 114.400 C 276.480 114.400,276.800 114.220,276.800 114.000 C 276.800 113.780,277.160 113.600,277.600 113.600 C 278.040 113.600,278.400 113.420,278.400 113.200 C 278.400 112.980,278.940 112.800,279.600 112.800 C 280.260 112.800,280.800 112.620,280.800 112.400 C 280.800 112.180,281.340 112.000,282.000 112.000 C 282.660 112.000,283.200 111.820,283.200 111.600 C 283.200 111.380,284.100 111.200,285.200 111.200 C 286.300 111.200,287.200 111.020,287.200 110.800 C 287.200 110.547,290.067 110.400,295.000 110.400 C 299.933 110.400,302.800 110.547,302.800 110.800 C 302.800 111.020,303.700 111.200,304.800 111.200 C 305.900 111.200,306.800 111.380,306.800 111.600 C 306.800 111.820,307.340 112.000,308.000 112.000 C 308.660 112.000,309.200 112.180,309.200 112.400 C 309.200 112.620,309.650 112.800,310.200 112.800 C 310.750 112.800,311.200 112.980,311.200 113.200 C 311.200 113.420,311.560 113.600,312.000 113.600 C 312.440 113.600,312.800 113.780,312.800 114.000 C 312.800 114.220,313.160 114.400,313.600 114.400 C 314.040 114.400,314.400 114.580,314.400 114.800 C 314.400 115.020,314.643 115.200,314.941 115.200 C 315.238 115.200,316.046 115.740,316.737 116.400 C 317.428 117.060,318.139 117.600,318.318 117.600 C 318.830 117.600,321.337 120.058,322.399 121.600 C 322.929 122.370,323.641 123.270,323.981 123.600 C 324.734 124.330,326.800 128.587,326.800 129.409 C 326.800 129.734,326.980 130.000,327.200 130.000 C 327.420 130.000,327.600 130.540,327.600 131.200 C 327.600 131.860,327.780 132.400,328.000 132.400 C 328.220 132.400,328.400 133.174,328.400 134.120 C 328.400 135.066,328.570 136.011,328.777 136.220 C 328.984 136.429,329.209 137.590,329.277 138.800 L 329.400 141.000 339.800 141.000 L 350.200 141.000 350.312 135.900 C 350.384 132.596,350.279 130.800,350.012 130.800 C 349.785 130.800,349.600 130.001,349.600 129.024 C 349.600 128.047,349.420 127.136,349.200 127.000 C 348.980 126.864,348.800 126.311,348.800 125.771 C 348.800 125.231,348.620 124.432,348.400 123.995 C 348.180 123.558,347.820 122.842,347.600 122.405 C 347.380 121.968,347.200 121.248,347.200 120.805 C 347.200 120.362,347.020 120.000,346.800 120.000 C 346.580 120.000,346.400 119.640,346.400 119.200 C 346.400 118.760,346.220 118.400,346.000 118.400 C 345.780 118.400,345.600 118.040,345.600 117.600 C 345.600 117.160,345.420 116.800,345.200 116.800 C 344.980 116.800,344.800 116.440,344.800 116.000 C 344.800 115.560,344.620 115.200,344.400 115.200 C 344.180 115.200,344.000 114.880,344.000 114.488 C 344.000 114.097,343.640 113.517,343.200 113.200 C 342.760 112.883,342.400 112.303,342.400 111.912 C 342.400 111.520,342.259 111.200,342.086 111.200 C 341.914 111.200,341.430 110.615,341.011 109.900 C 340.592 109.185,339.787 108.150,339.222 107.600 C 338.657 107.050,337.754 105.942,337.216 105.138 C 336.677 104.334,335.720 103.371,335.089 102.998 C 334.457 102.625,333.149 101.528,332.181 100.560 C 331.213 99.592,330.186 98.800,329.899 98.800 C 329.612 98.800,329.117 98.440,328.800 98.000 C 328.483 97.560,327.943 97.200,327.600 97.200 C 327.257 97.200,326.717 96.840,326.400 96.400 C 326.083 95.960,325.518 95.600,325.145 95.600 C 324.772 95.600,324.407 95.458,324.333 95.285 C 323.910 94.285,316.919 91.672,313.700 91.310 C 312.765 91.205,312.000 90.958,312.000 90.760 C 312.000 90.562,311.201 90.400,310.224 90.400 C 309.247 90.400,308.336 90.220,308.200 90.000 C 308.043 89.746,303.129 89.600,294.776 89.600 C 286.259 89.600,281.600 89.741,281.600 90.000 M162.800 110.800 C 162.800 111.020,163.700 111.200,164.800 111.200 C 165.900 111.200,166.800 111.380,166.800 111.600 C 166.800 111.820,167.340 112.000,168.000 112.000 C 168.660 112.000,169.200 112.180,169.200 112.400 C 169.200 112.620,169.740 112.800,170.400 112.800 C 171.060 112.800,171.600 112.980,171.600 113.200 C 171.600 113.420,171.960 113.600,172.400 113.600 C 172.840 113.600,173.200 113.780,173.200 114.000 C 173.200 114.220,173.520 114.400,173.912 114.400 C 174.303 114.400,174.883 114.760,175.200 115.200 C 175.517 115.640,175.925 116.000,176.106 116.000 C 176.288 116.000,176.873 116.437,177.407 116.971 C 177.941 117.505,178.899 118.249,179.535 118.625 C 180.171 119.001,180.976 119.779,181.323 120.354 C 181.670 120.929,182.415 121.887,182.977 122.483 C 183.540 123.078,184.000 123.713,184.000 123.894 C 184.000 124.075,184.360 124.483,184.800 124.800 C 185.240 125.117,185.600 125.697,185.600 126.088 C 185.600 126.480,185.780 126.800,186.000 126.800 C 186.220 126.800,186.400 127.160,186.400 127.600 C 186.400 128.040,186.580 128.400,186.800 128.400 C 187.020 128.400,187.200 128.940,187.200 129.600 C 187.200 130.260,187.380 130.800,187.600 130.800 C 187.820 130.800,188.000 131.340,188.000 132.000 C 188.000 132.660,188.180 133.200,188.400 133.200 C 188.620 133.200,188.800 134.089,188.800 135.176 C 188.800 136.263,188.980 137.264,189.200 137.400 C 189.754 137.742,189.754 262.400,189.200 262.400 C 188.980 262.400,188.800 263.390,188.800 264.600 C 188.800 265.810,188.620 266.800,188.400 266.800 C 188.180 266.800,188.000 267.340,188.000 268.000 C 188.000 268.660,187.820 269.200,187.600 269.200 C 187.380 269.200,187.200 269.740,187.200 270.400 C 187.200 271.060,187.020 271.600,186.800 271.600 C 186.580 271.600,186.400 271.960,186.400 272.400 C 186.400 272.840,186.220 273.200,186.000 273.200 C 185.780 273.200,185.600 273.520,185.600 273.912 C 185.600 274.303,185.240 274.883,184.800 275.200 C 184.360 275.517,184.000 275.925,184.000 276.106 C 184.000 276.288,183.595 276.856,183.100 277.368 C 181.626 278.893,180.800 279.984,180.800 280.405 C 180.800 280.622,180.622 280.800,180.405 280.800 C 179.984 280.800,178.893 281.626,177.368 283.100 C 176.856 283.595,176.288 284.000,176.106 284.000 C 175.925 284.000,175.517 284.360,175.200 284.800 C 174.883 285.240,174.303 285.600,173.912 285.600 C 173.520 285.600,173.200 285.780,173.200 286.000 C 173.200 286.220,172.840 286.400,172.400 286.400 C 171.960 286.400,171.600 286.580,171.600 286.800 C 171.600 287.020,171.060 287.200,170.400 287.200 C 169.740 287.200,169.200 287.380,169.200 287.600 C 169.200 287.820,168.660 288.000,168.000 288.000 C 167.340 288.000,166.800 288.180,166.800 288.400 C 166.800 288.620,165.911 288.800,164.824 288.800 C 163.737 288.800,162.736 288.980,162.600 289.200 C 162.449 289.444,159.396 289.600,154.776 289.600 C 149.992 289.600,147.200 289.453,147.200 289.200 C 147.200 288.980,146.300 288.800,145.200 288.800 C 144.100 288.800,143.200 288.620,143.200 288.400 C 143.200 288.180,142.660 288.000,142.000 288.000 C 141.340 288.000,140.800 287.820,140.800 287.600 C 140.800 287.380,140.350 287.200,139.800 287.200 C 139.250 287.200,138.800 287.020,138.800 286.800 C 138.800 286.580,138.440 286.400,138.000 286.400 C 137.560 286.400,137.200 286.220,137.200 286.000 C 137.200 285.780,136.840 285.600,136.400 285.600 C 135.960 285.600,135.600 285.420,135.600 285.200 C 135.600 284.980,135.357 284.800,135.059 284.800 C 134.762 284.800,133.954 284.260,133.263 283.600 C 132.572 282.940,131.861 282.400,131.682 282.400 C 131.170 282.400,128.663 279.942,127.601 278.400 C 127.071 277.630,126.359 276.730,126.019 276.400 C 125.266 275.670,123.200 271.413,123.200 270.591 C 123.200 270.266,123.020 270.000,122.800 270.000 C 122.580 270.000,122.400 269.460,122.400 268.800 C 122.400 268.140,122.220 267.600,122.000 267.600 C 121.780 267.600,121.600 266.801,121.600 265.824 C 121.600 264.847,121.420 263.936,121.200 263.800 C 120.646 263.458,120.646 136.542,121.200 136.200 C 121.420 136.064,121.600 135.153,121.600 134.176 C 121.600 133.199,121.780 132.400,122.000 132.400 C 122.220 132.400,122.400 131.860,122.400 131.200 C 122.400 130.540,122.580 130.000,122.800 130.000 C 123.020 130.000,123.200 129.734,123.200 129.409 C 123.200 128.528,125.295 124.297,126.100 123.553 C 126.485 123.197,126.800 122.702,126.800 122.453 C 126.800 122.204,126.980 122.000,127.200 122.000 C 127.420 122.000,127.600 121.802,127.600 121.560 C 127.600 121.058,131.151 117.600,131.667 117.600 C 131.854 117.600,132.572 117.060,133.263 116.400 C 133.954 115.740,134.762 115.200,135.059 115.200 C 135.357 115.200,135.600 115.020,135.600 114.800 C 135.600 114.580,135.960 114.400,136.400 114.400 C 136.840 114.400,137.200 114.220,137.200 114.000 C 137.200 113.780,137.560 113.600,138.000 113.600 C 138.440 113.600,138.800 113.420,138.800 113.200 C 138.800 112.980,139.250 112.800,139.800 112.800 C 140.350 112.800,140.800 112.620,140.800 112.400 C 140.800 112.180,141.340 112.000,142.000 112.000 C 142.660 112.000,143.200 111.820,143.200 111.600 C 143.200 111.380,144.100 111.200,145.200 111.200 C 146.300 111.200,147.200 111.020,147.200 110.800 C 147.200 110.547,150.067 110.400,155.000 110.400 C 159.933 110.400,162.800 110.547,162.800 110.800 M49.867 159.067 C 49.720 159.213,49.600 164.163,49.600 170.067 L 49.600 180.800 60.200 180.800 L 70.800 180.800 70.800 170.043 C 70.800 160.603,70.723 159.256,70.167 159.043 C 69.303 158.711,50.200 158.733,49.867 159.067 M49.600 255.000 L 49.600 310.400 60.200 310.400 L 70.800 310.400 70.800 255.000 L 70.800 199.600 60.200 199.600 L 49.600 199.600 49.600 255.000 " stroke="none" fill="#040404" fill-rule="evenodd"></path><path id="path1" d="" stroke="none" fill="#080404" fill-rule="evenodd"></path><path id="path2" d="" stroke="none" fill="#080404" fill-rule="evenodd"></path><path id="path3" d="" stroke="none" fill="#080404" fill-rule="evenodd"></path><path id="path4" d="" stroke="none" fill="#080404" fill-rule="evenodd"></path></g></svg>