<svg id="Layer_1" data-name="Layer 1" xmlns="http://www.w3.org/2000/svg" viewBox="0 0 452 452"><path d="M183.47,5H35.23A30.45,30.45,0,0,0,4.87,35.48V334.64A30.43,30.43,0,0,0,35.23,365H183.47a30.43,30.43,0,0,0,30.36-30.36V35.48A30.45,30.45,0,0,0,183.47,5ZM81.79,25.66h56.26v6.89H81.79ZM110,353a12.63,12.63,0,1,1,12.63-12.63A12.63,12.63,0,0,1,110,353Zm86.62-32.27H23.24V45.18H196.61Z" style="stroke:#000;stroke-miterlimit:10;stroke-width:9px"/><rect x="18.24" y="72.36" width="173.37" height="275.56" style="fill:none"/><rect x="76.8" y="52.85" width="56.26" height="6.89" style="fill:none"/><path d="M117.49,367.56A12.57,12.57,0,1,1,105,354.93a12.63,12.63,0,0,1,12.5,12.63Z" style="fill:none"/><rect x="29.32" y="290.57" width="13.37" height="2.38" style="fill:none"/><rect x="186.92" y="243.99" width="213" height="127.45" style="fill:none"/><rect x="177.76" y="235.54" width="231.82" height="0.01" style="fill:none"/><rect x="186.92" y="243.99" width="213" height="127.45" style="fill:none"/><path d="M407.35,232.87H169.49A10.11,10.11,0,0,0,159.39,243V394.44a10.1,10.1,0,0,0,10.1,10.11H407.35a10.1,10.1,0,0,0,10.11-10.11V243A10.12,10.12,0,0,0,407.35,232.87Zm-119,4.49h0a2.78,2.78,0,1,1-2.77,2.77A2.78,2.78,0,0,1,288.42,237.36ZM404.58,391H172.76V246.55H404.58Z" style="stroke:#000;stroke-miterlimit:10;stroke-width:16px"/><path d="M447,422.32H318.79v9.41H258.35v-9.41H130c-1.32,23.85,12,24.78,12,24.78H434.67C449,443.65,447,422.32,447,422.32ZM172.76,437.38H159.39v-3.77h13.37Z" style="stroke:#000;stroke-miterlimit:10;stroke-width:10px"/><circle cx="293.42" cy="229.15" r="2.77" style="fill:none"/></svg>